<?xml version="1.0" encoding="UTF-8"?>
<svg width="868px" height="1183px" viewBox="0 0 868 1183" version="1.1" xmlns="http://www.w3.org/2000/svg" xmlns:xlink="http://www.w3.org/1999/xlink">
    <title>泛白-单独logo</title>
    <g id="logo" stroke="none" stroke-width="1" fill="none" fill-rule="evenodd">
        <g id="画板备份-10" transform="translate(-995.000000, -529.000000)" fill="#FFFFFF">
            <g id="编组-3" transform="translate(995.000000, 529.000000)">
                <path d="M484,415 C696.077344,415 868,586.922656 868,799 C868,1011.07734 696.077344,1183 484,1183 L384,1183 C171.922656,1183 2.5971984e-14,1011.07734 0,799 C-2.5971984e-14,586.922656 171.922656,415 384,415 L484,415 Z M484,469.012193 C301.746033,469.012193 154,616.758226 154,799.012193 C154,981.26616 301.746033,1129.01219 484,1129.01219 C666.253967,1129.01219 814,981.26616 814,799.012193 C814,616.758226 666.253967,469.012193 484,469.012193 Z" id="形状结合"></path>
                <g id="编组" transform="translate(195.000000, 488.928890)">
                    <path d="M226.110598,80.6520545 L310.435272,246.422523 C318.488615,262.254261 312.182978,281.616944 296.35124,289.670285 C294.169785,290.779955 291.868793,291.63699 289.492945,292.224748 C260.231176,299.463784 232.733528,303.083302 207,303.083302 C181.266472,303.083302 153.768823,299.463784 124.507053,292.224748 C107.264526,287.959137 96.7446546,270.523347 101.010264,253.280819 C101.598023,250.904971 102.455058,248.603979 103.564727,246.422525 L187.889402,80.6520545 C193.258296,70.0975627 206.166751,65.8938052 216.721243,71.2626992 C220.765739,73.3200672 224.05323,76.607558 226.110598,80.6520545 Z" id="三角形备份" transform="translate(207.000000, 173.083302) scale(-1, 1) rotate(-150.000000) translate(-207.000000, -173.083302) "></path>
                    <path d="M225.978736,357.823361 L310.30341,523.59383 C318.356752,539.425567 312.051116,558.78825 296.219377,566.841592 C294.037923,567.951261 291.736931,568.808296 289.361083,569.396055 C260.099314,576.635091 232.601665,580.254609 206.868138,580.254609 C181.134609,580.254609 153.636961,576.635091 124.375191,569.396054 C107.132663,565.130444 96.6127923,547.694653 100.878402,530.452125 C101.46616,528.076278 102.323195,525.775286 103.432865,523.593831 L187.75754,357.823361 C193.126434,347.268869 206.034888,343.065112 216.58938,348.434006 C220.633877,350.491374 223.921368,353.778864 225.978736,357.823361 Z" id="三角形备份-2" transform="translate(206.868138, 450.254609) scale(-1, -1) rotate(-150.000000) translate(-206.868138, -450.254609) "></path>
                    <path d="M389.189662,357.531019 L473.514336,523.301488 C481.567679,539.133226 475.262042,558.495908 459.430304,566.54925 C457.248849,567.658919 454.947857,568.515955 452.572009,569.103713 C423.31024,576.342749 395.812592,579.962267 370.079064,579.962267 C344.345536,579.962267 316.847887,576.342749 287.586117,569.103713 C270.343589,564.838102 259.823718,547.402311 264.089328,530.159783 C264.677086,527.783936 265.534121,525.482944 266.643791,523.301489 L350.968466,357.531019 C356.33736,346.976527 369.245815,342.77277 379.800306,348.141664 C383.844803,350.199032 387.132294,353.486523 389.189662,357.531019 Z" id="三角形备份-13" transform="translate(370.079064, 449.962267) scale(1, -1) rotate(-150.000000) translate(-370.079064, -449.962267) "></path>
                    <path d="M390.110598,80.6520545 L474.435272,246.422523 C482.488615,262.254261 476.182978,281.616944 460.35124,289.670285 C458.169785,290.779955 455.868793,291.63699 453.492945,292.224748 C424.231176,299.463784 396.733528,303.083302 371,303.083302 C345.266472,303.083302 317.768823,299.463784 288.507053,292.224748 C271.264526,287.959137 260.744655,270.523347 265.010264,253.280819 C265.598023,250.904971 266.455058,248.603979 267.564727,246.422525 L351.889402,80.6520545 C357.258296,70.0975627 370.166751,65.8938052 380.721243,71.2626992 C384.765739,73.3200672 388.05323,76.607558 390.110598,80.6520545 Z" id="三角形备份-12" transform="translate(371.000000, 173.083302) rotate(-150.000000) translate(-371.000000, -173.083302) "></path>
                    <path d="M467.110598,218.652055 L551.435272,384.422523 C559.488615,400.254261 553.182978,419.616944 537.35124,427.670285 C535.169785,428.779955 532.868793,429.63699 530.492945,430.224748 C501.231176,437.463784 473.733528,441.083302 448,441.083302 C422.266472,441.083302 394.768823,437.463784 365.507053,430.224748 C348.264526,425.959137 337.744655,408.523347 342.010264,391.280819 C342.598023,388.904971 343.455058,386.603979 344.564727,384.422525 L428.889402,218.652055 C434.258296,208.097563 447.166751,203.893805 457.721243,209.262699 C461.765739,211.320067 465.05323,214.607558 467.110598,218.652055 Z" id="三角形备份-14" transform="translate(448.000000, 311.083302) rotate(-90.000000) translate(-448.000000, -311.083302) "></path>
                    <path d="M149.110598,218.652055 L233.435272,384.422523 C241.488615,400.254261 235.182978,419.616944 219.35124,427.670285 C217.169785,428.779955 214.868793,429.63699 212.492945,430.224748 C183.231176,437.463784 155.733528,441.083302 130,441.083302 C104.266472,441.083302 76.7688229,437.463784 47.5070533,430.224748 C30.2645255,425.959137 19.7446546,408.523347 24.0102643,391.280819 C24.5980226,388.904971 25.4550576,386.603979 26.5647272,384.422525 L110.889402,218.652055 C116.258296,208.097563 129.166751,203.893805 139.721243,209.262699 C143.765739,211.320067 147.05323,214.607558 149.110598,218.652055 Z" id="三角形备份-15" transform="translate(130.000000, 311.083302) scale(-1, 1) rotate(-90.000000) translate(-130.000000, -311.083302) "></path>
                    <circle id="椭圆形" cx="289" cy="310.083302" r="30"></circle>
                </g>
                <g id="编组-2" transform="translate(319.500000, 235.012193) rotate(23.000000) translate(-319.500000, -235.012193) translate(168.000000, 44.012193)">
                    <path d="M225.781973,0 C170.946112,48.0915622 144.54467,100.182471 146.577649,156.272727 C146.577649,211.971848 172.97909,264.062758 225.781973,312.545455 C277.260658,264.718401 303,212.627491 303,156.272727 C303,99.9179631 277.260658,47.827054 225.781973,0 Z" id="路径"></path>
                    <path d="M0,328.863631 C28.4473268,294.585553 63.666884,276.156021 105.658672,273.575035 C147.650459,270.994049 182.870016,289.423581 211.317343,328.863631 C175.269398,364.287877 138.533635,382 101.110053,382 C63.6864712,382 29.9831202,364.287877 0,328.863631 Z" id="路径-2"></path>
                </g>
            </g>
        </g>
    </g>
</svg>